<svg xmlns="http://www.w3.org/2000/svg" width="800" height="800" viewBox="-4 0 32 32"><path d="M0 20.688v2c0 .281.219.5.5.5h2.875c1.688 0 3.094-.781 4.25-1.969 1.188-1.188 2.156-2.781 3.125-4.313.781-1.25 1.563-2.438 2.375-3.344.781-.938 1.563-1.5 2.5-1.5h2.656v2.281c0 .719.5.844 1.094.375l4.344-3.625a.8.8 0 0 0 0-1.219L19.375 6.28c-.594-.5-1.094-.375-1.094.375v2.406h-2.656c-1.719 0-3.063.75-4.25 1.969-1.156 1.188-2.219 2.781-3.156 4.281-.813 1.281-1.563 2.5-2.375 3.406-.781.906-1.563 1.469-2.469 1.469H.5c-.281 0-.5.219-.5.5zM0 9.531v2c0 .281.219.5.5.5h2.875c1.406 0 2.531 1.375 3.75 3.156.031-.094.063-.156.094-.219.031-.031.125-.094.156-.156.469-.781 1-1.531 1.5-2.344-.75-.969-1.469-1.844-2.406-2.438a5.27 5.27 0 0 0-3.094-.969H.5c-.344 0-.5.156-.5.469zm18.281 10.594h-2.656c-1.375 0-2.563-1.344-3.75-3.094a2 2 0 0 0-.125.219c-.063.063-.094.125-.156.219-.219.375-.5.781-.719 1.156-.25.344-.5.75-.719 1.094.719.969 1.469 1.813 2.375 2.406.875.625 1.906 1.031 3.094 1.031h2.656v2.188c0 .719.5.875 1.094.375l4.344-3.656a.768.768 0 0 0 0-1.188l-4.344-3.594c-.594-.469-1.094-.375-1.094.375z"/></svg>